<svg id="Assets" xmlns="http://www.w3.org/2000/svg" width="348" height="80">
  <defs>
    <linearGradient id="a" x1="87.25%" y1="15.5%" x2="9.4%" y2="93.1%">
      <stop offset=".05" stop-color="#fff44f"/>
      <stop offset=".37" stop-color="#ff980e"/>
      <stop offset=".53" stop-color="#ff3647"/>
      <stop offset=".7" stop-color="#e31587"/>
    </linearGradient>    
    <radialGradient id="b" cx="87.4%" cy="-12.9%" r="128%" gradientTransform="translate(0.874,0),scale(0.8,1),translate(-0.87,0.129)">
      <stop offset=".13" stop-color="#ffbd4f"/>
      <stop offset=".28" stop-color="#ff980e"/>
      <stop offset=".47" stop-color="#ff3750"/>
      <stop offset=".78" stop-color="#eb0878"/>
      <stop offset=".86" stop-color="#e50080"/>
    </radialGradient>
    <radialGradient id="c" cx="49%" cy="40%" r="128%" gradientTransform="translate(0.49,0.4),scale(0.82,1),translate(-0.49,-0.4)">
      <stop offset=".3" stop-color="#960e18"/>
      <stop offset=".35" stop-color="#b11927" stop-opacity=".74"/>
      <stop offset=".43" stop-color="#db293d" stop-opacity=".34"/>
      <stop offset=".5" stop-color="#f5334b" stop-opacity=".09"/>
      <stop offset=".53" stop-color="#ff3750" stop-opacity="0"/>
    </radialGradient>
    <radialGradient id="d" cx="48%" cy="-12%" r="140%">
      <stop offset=".13" stop-color="#fff44f"/>
      <stop offset=".53" stop-color="#ff980e"/>
    </radialGradient>
    <radialGradient id="e" cx="22.76%" cy="110.11%" r="100%">
      <stop offset=".35" stop-color="#3a8ee6"/>
      <stop offset=".67" stop-color="#9059ff"/>
      <stop offset="1" stop-color="#c139e6"/>
    </radialGradient>
    <radialGradient id="f" cx="52%" cy="33%" r="59%" gradientTransform="scale(.9,1)">
      <stop offset=".21" stop-color="#9059ff" stop-opacity="0"/>
      <stop offset=".97" stop-color="#6e008b" stop-opacity=".6"/>
    </radialGradient>
    <radialGradient id="g" cx="210%" cy="-100%" r="290%">
      <stop offset=".1" stop-color="#ffe226"/>
      <stop offset=".79" stop-color="#ff7139"/>
    </radialGradient>
    <radialGradient id="h" cx="84%" cy="-41%" r="180%">
      <stop offset=".11" stop-color="#fff44f"/>
      <stop offset=".46" stop-color="#ff980e"/>
      <stop offset=".72" stop-color="#ff3647"/>
      <stop offset=".9" stop-color="#e31587"/>
    </radialGradient>
    <radialGradient id="i" cx="16.1%" cy="-18.6%" r="348.8%" gradientTransform="translate(0.16,-0.19),scale(1,0.47),rotate(84),translate(-0.16,0.19)">
      <stop offset="0" stop-color="#fff44f"/>
      <stop offset=".3" stop-color="#ff980e"/>
      <stop offset=".57" stop-color="#ff3647"/>
      <stop offset=".74" stop-color="#e31587"/>
    </radialGradient>
    <radialGradient id="j" cx="18.9%" cy="-42.5%" r="238.4%">
      <stop offset=".14" stop-color="#fff44f"/>
      <stop offset=".48" stop-color="#ff980e"/>
      <stop offset=".66" stop-color="#ff3647"/>
      <stop offset=".9" stop-color="#e31587"/>
    </radialGradient>
    <radialGradient id="k" cx="159.3%" cy="-44.72%" r="313.1%">
      <stop offset=".09" stop-color="#fff44f"/>
      <stop offset=".63" stop-color="#ff980e"/>
    </radialGradient>
    <linearGradient id="l" x1="80%" y1="14%" x2="18%" y2="84%">
      <stop offset=".17" stop-color="#fff44f" stop-opacity=".8"/>
      <stop offset=".6" stop-color="#fff44f" stop-opacity="0"/>
    </linearGradient>
  </defs>
  <path id="shape-base" d="M75.916 26.831c-1.684-4.052-5.1-8.427-7.775-9.81a40.266 40.266 0 0 1 3.925 11.764l0.007 0.065C67.691 17.925 60.26 13.52 54.191 3.928a47.099 47.099 0 0 1-0.913-1.484 12.24 12.24 0 0 1-0.427-0.8 7.053 7.053 0 0 1-0.578-1.535 0.1 0.1 0 0 0-0.088-0.1 0.138 0.138 0 0 0-0.073 0c-0.005 0-0.013 0.009-0.019 0.011s-0.019 0.011-0.028 0.015l0.015-0.026c-9.735 5.7-13.038 16.252-13.342 21.53a19.387 19.387 0 0 0-10.666 4.111 11.587 11.587 0 0 0-1-0.758 17.968 17.968 0 0 1-0.109-9.473 28.705 28.705 0 0 0-9.329 7.21h-0.018c-1.536-1.947-1.428-8.367-1.34-9.708a6.928 6.928 0 0 0-1.294 0.687 28.225 28.225 0 0 0-3.788 3.245A33.845 33.845 0 0 0 7.571 21.2v0.006-0.007a32.733 32.733 0 0 0-5.2 11.743l-0.052 0.256a61.89 61.89 0 0 0-0.381 2.42c0 0.029-0.006 0.056-0.009 0.085A36.937 36.937 0 0 0 1.3 41.046v0.2A38.759 38.759 0 0 0 78.254 47.8c0.065-0.5 0.118-0.995 0.176-1.5a39.857 39.857 0 0 0-2.514-19.469zm-44.67 30.338c0.181 0.087 0.351 0.181 0.537 0.264l0.027 0.017q-0.282-0.135-0.564-0.281zm8.878-23.376zm31.952-4.934v-0.037l0.007 0.041z" fill="url(#a)"/>
  <path id="body-outer-ring" d="M75.916 26.831c-1.684-4.052-5.1-8.427-7.775-9.81a40.266 40.266 0 0 1 3.925 11.764v0.037l0.007 0.041a35.1 35.1 0 0 1-1.206 26.158c-4.442 9.531-15.194 19.3-32.024 18.825-18.185-0.515-34.2-14.009-37.194-31.683-0.545-2.787 0-4.2 0.274-6.465A28.876 28.876 0 0 0 1.3 41.046v0.2A38.759 38.759 0 0 0 78.254 47.8c0.065-0.5 0.118-0.995 0.176-1.5a39.857 39.857 0 0 0-2.514-19.469z" fill="url(#b)"/>
  <path id="body-outer-ring-shadow" d="M75.916 26.831c-1.684-4.052-5.1-8.427-7.775-9.81a40.266 40.266 0 0 1 3.925 11.764v0.037l0.007 0.041a35.1 35.1 0 0 1-1.206 26.158c-4.442 9.531-15.194 19.3-32.024 18.825-18.185-0.515-34.2-14.009-37.194-31.683-0.545-2.787 0-4.2 0.274-6.465A28.876 28.876 0 0 0 1.3 41.046v0.2A38.759 38.759 0 0 0 78.254 47.8c0.065-0.5 0.118-0.995 0.176-1.5a39.857 39.857 0 0 0-2.514-19.469z" fill="url(#c)"/>
  <path id="tail-tip" d="M57.082 31.387c0.084 0.059 0.162 0.118 0.241 0.177a21.1 21.1 0 0 0-3.6-4.695C41.677 14.821 50.566 0.746 52.065 0.031l0.015-0.022c-9.735 5.7-13.038 16.252-13.342 21.53 0.452-0.031 0.9-0.069 1.362-0.069a19.56 19.56 0 0 1 16.982 9.917z" fill="url(#d)"/>
  <path id="globe-base" d="M40.125 33.793c-0.064 0.964-3.47 4.289-4.661 4.289-11.021 0-12.81 6.667-12.81 6.667 0.488 5.614 4.4 10.238 9.129 12.684a13.44 13.44 0 0 0 0.654 0.312q0.569 0.252 1.138 0.466a17.235 17.235 0 0 0 5.043 0.973c19.317 0.906 23.059-23.1 9.119-30.066a13.38 13.38 0 0 1 9.345 2.269A19.56 19.56 0 0 0 40.1 21.47c-0.46 0-0.91 0.038-1.362 0.069a19.387 19.387 0 0 0-10.666 4.111c0.591 0.5 1.258 1.168 2.663 2.553 2.63 2.591 9.375 5.275 9.39 5.59z" fill="url(#e)"/>
  <path id="globe-shadow" d="M40.125 33.793c-0.064 0.964-3.47 4.289-4.661 4.289-11.021 0-12.81 6.667-12.81 6.667 0.488 5.614 4.4 10.238 9.129 12.684a13.44 13.44 0 0 0 0.654 0.312q0.569 0.252 1.138 0.466a17.235 17.235 0 0 0 5.043 0.973c19.317 0.906 23.059-23.1 9.119-30.066a13.38 13.38 0 0 1 9.345 2.269A19.56 19.56 0 0 0 40.1 21.47c-0.46 0-0.91 0.038-1.362 0.069a19.387 19.387 0 0 0-10.666 4.111c0.591 0.5 1.258 1.168 2.663 2.553 2.63 2.591 9.375 5.275 9.39 5.59z" fill="url(#f)"/>
  <path id="ear" d="M26.265 24.361a24.874 24.874 0 0 1 0.8 0.531 17.968 17.968 0 0 1-0.109-9.473 28.705 28.705 0 0 0-9.329 7.21c0.189-0.005 5.811-0.106 8.638 1.732z" fill="url(#g)"/>
  <path id="body" d="M1.654 42.163c2.991 17.674 19.009 31.168 37.194 31.683 16.83 0.476 27.582-9.294 32.024-18.825a35.1 35.1 0 0 0 1.206-26.158v-0.037c0-0.029-0.006-0.046 0-0.037l0.007 0.065c1.375 8.977-3.191 17.674-10.329 23.555l-0.022 0.05c-13.908 11.327-27.218 6.834-29.912 5q-0.282-0.135-0.564-0.281c-8.109-3.876-11.459-11.264-10.741-17.6a9.953 9.953 0 0 1-9.181-5.775 14.618 14.618 0 0 1 14.249-0.572 19.3 19.3 0 0 0 14.552 0.572c-0.015-0.315-6.76-3-9.39-5.59-1.405-1.385-2.072-2.052-2.663-2.553a11.587 11.587 0 0 0-1-0.758 54.245 54.245 0 0 0-0.8-0.531c-2.827-1.838-8.449-1.737-8.635-1.732h-0.018c-1.536-1.947-1.428-8.367-1.34-9.708a6.928 6.928 0 0 0-1.294 0.687 28.225 28.225 0 0 0-3.788 3.245A33.845 33.845 0 0 0 7.571 21.2v0.006-0.007a32.733 32.733 0 0 0-5.2 11.743c-0.019 0.079-1.396 6.099-0.717 9.221z" fill="url(#h)"/>
  <path id="tail-flame" d="M53.725 26.869a21.1 21.1 0 0 1 3.6 4.7 8.083 8.083 0 0 1 0.581 0.476c8.787 8.1 4.183 19.55 3.84 20.365 7.138-5.881 11.7-14.578 10.329-23.555C67.691 17.925 60.26 13.52 54.191 3.928a47.099 47.099 0 0 1-0.913-1.484 12.24 12.24 0 0 1-0.427-0.8 7.053 7.053 0 0 1-0.578-1.535 0.1 0.1 0 0 0-0.088-0.1 0.138 0.138 0 0 0-0.073 0c-0.005 0-0.013 0.009-0.019 0.011s-0.019 0.011-0.028 0.015c-1.499 0.711-10.388 14.786 1.66 26.834z" fill="url(#i)"/>
  <path id="tail-small" d="M57.9 32.04a8.083 8.083 0 0 0-0.581-0.476c-0.079-0.059-0.157-0.118-0.241-0.177a13.38 13.38 0 0 0-9.345-2.269c13.94 6.97 10.2 30.972-9.119 30.066a17.235 17.235 0 0 1-5.043-0.973q-0.569-0.213-1.138-0.466a14.44 14.44 0 0 1-0.654-0.312l0.027 0.017c2.694 1.839 16 6.332 29.912-5l0.022-0.05c0.347-0.81 4.951-12.263-3.84-20.36z" fill="url(#j)"/>
  <path id="cheek-tufts" d="M22.654 44.749s1.789-6.667 12.81-6.667c1.191 0 4.6-3.325 4.661-4.289a19.3 19.3 0 0 1-14.552-0.572 14.618 14.618 0 0 0-14.249 0.572 9.953 9.953 0 0 0 9.181 5.775c-0.718 6.337 2.632 13.725 10.741 17.6 0.181 0.087 0.351 0.181 0.537 0.264-4.733-2.445-8.641-7.069-9.129-12.683z" fill="url(#k)"/>
  <path id="overlay-yellow" d="M75.916 26.831c-1.684-4.052-5.1-8.427-7.775-9.81a40.266 40.266 0 0 1 3.925 11.764l0.007 0.065C67.691 17.925 60.26 13.52 54.191 3.928a47.099 47.099 0 0 1-0.913-1.484 12.24 12.24 0 0 1-0.427-0.8 7.053 7.053 0 0 1-0.578-1.535 0.1 0.1 0 0 0-0.088-0.1 0.138 0.138 0 0 0-0.073 0c-0.005 0-0.013 0.009-0.019 0.011s-0.019 0.011-0.028 0.015l0.015-0.026c-9.735 5.7-13.038 16.252-13.342 21.53 0.452-0.031 0.9-0.069 1.362-0.069a19.56 19.56 0 0 1 16.982 9.917 13.38 13.38 0 0 0-9.345-2.269c13.94 6.97 10.2 30.972-9.119 30.066a17.235 17.235 0 0 1-5.043-0.973q-0.569-0.213-1.138-0.466a14.44 14.44 0 0 1-0.654-0.312l0.027 0.017q-0.282-0.135-0.564-0.281c0.181 0.087 0.351 0.181 0.537 0.264-4.733-2.446-8.641-7.07-9.129-12.684 0 0 1.789-6.667 12.81-6.667 1.191 0 4.6-3.325 4.661-4.289-0.015-0.315-6.76-3-9.39-5.59-1.405-1.385-2.072-2.052-2.663-2.553a11.587 11.587 0 0 0-1-0.758 17.968 17.968 0 0 1-0.109-9.473 28.705 28.705 0 0 0-9.329 7.21h-0.018c-1.536-1.947-1.428-8.367-1.34-9.708a6.928 6.928 0 0 0-1.294 0.687 28.225 28.225 0 0 0-3.788 3.245A33.845 33.845 0 0 0 7.571 21.2v0.006-0.007a32.733 32.733 0 0 0-5.2 11.743l-0.052 0.256c-0.073 0.341-0.4 2.073-0.447 2.445 0 0.028 0-0.029 0 0A45.094 45.094 0 0 0 1.3 41.046v0.2A38.759 38.759 0 0 0 78.254 47.8c0.065-0.5 0.118-0.995 0.176-1.5a39.857 39.857 0 0 0-2.514-19.469zm-3.845 1.991l0.007 0.041z" fill="url(#l)"/>
  <path d="M97.07 7.87h10.76v2.92h-7.68v3.94h7.68v2.89h-7.68V24h-3.08zm14.42-1.12a1.73 1.73 0 0 1 1.78 1.81 1.8 1.8 0 0 1-3.59 0 1.79 1.79 0 0 1 1.81-1.81zM110 12.06h3V24h-3zm11.86 3.31a2.45 2.45 0 0 0-1.48-0.53c-1.23 0-1.94 0.8-1.94 2.54V24h-3V12.06h2.89v1.72a2.85 2.85 0 0 1 2.79-1.78 3.58 3.58 0 0 1 2 0.62zm1.26 2.71a6.09 6.09 0 0 1 6.13-6.26 5.87 5.87 0 0 1 6.11 6.07v1.25h-9.27a3.12 3.12 0 0 0 3.29 2.5 3.19 3.19 0 0 0 3-1.77l2.54 1.52a6.24 6.24 0 0 1-5.58 2.83 5.8 5.8 0 0 1-6.25-6.14zm3-1.34h6.26a3 3 0 0 0-3.17-2.36 3.06 3.06 0 0 0-3.1 2.36zm10-4.68h2.13v-0.59c0-3.24 1.37-4.59 4.37-4.59h1.06v2.63h-0.86c-1.41 0-1.72 0.48-1.72 2v0.59h2.58v2.7h-2.51V24h-2.92v-9.2h-2.13zm8.13 6a6.1 6.1 0 0 1 6.22-6.2 6.2 6.2 0 1 1 0 12.4 6 6 0 0 1-6.26-6.26zm9.49 0a3.27 3.27 0 1 0-6.53 0 3.27 3.27 0 1 0 6.53 0zm7.05-0.13l-4.3-5.83H160l2.54 3.67 2.6-3.67h3.51l-4.37 5.8 4.61 6.1h-3.55l-2.85-3.88-2.75 3.88h-3.55zm25.7-2.27a3.73 3.73 0 0 0 2.14-3.49c0-2.61-2-4.29-5-4.29h-6.9V24h7.12c3 0 5.1-1.73 5.1-4.55a3.88 3.88 0 0 0-2.46-3.79zm-7.91-6.1h5c2 0 3.18 1.06 3.18 2.61s-1.06 2.69-3 2.69h-5.19zm5.25 12.75h-5.25v-5.75h5.17c2.2 0 3.35 1.17 3.35 2.88s-1.28 2.87-3.27 2.87zm9.06-8v-2.23h-1.74V24h1.79v-6.53c0-2.63 1.14-3.78 3.13-3.78a2.62 2.62 0 0 1 1.46 0.38l0.75-1.72a3.86 3.86 0 0 0-2-0.45 3.3 3.3 0 0 0-3.39 2.43zm11.66-2.49a6.12 6.12 0 0 0-6.18 6.2 6.08 6.08 0 0 0 6.18 6.21 6.21 6.21 0 1 0 0-12.41zm0 10.69A4.32 4.32 0 0 1 200.2 18a4.37 4.37 0 1 1 8.73 0 4.35 4.35 0 0 1-4.38 4.53zm20.74-1.06l-3.55-9.39h-1.68l-3.65 9.45-3-9.45h-1.9L215.42 24h1.77l3.66-9.46 3.67 9.46h1.63l4.14-11.93h-1.88zm11.38-4.35c-1.86-0.38-3.29-0.62-3.29-1.86s0.75-1.9 2.58-1.9a3.85 3.85 0 0 1 3.27 1.66l1.5-1a5.74 5.74 0 0 0-4.73-2.18c-2.82 0-4.44 1.61-4.44 3.46 0 2.39 2.19 2.94 4.24 3.34 1.75 0.35 3.38 0.62 3.38 1.94s-1 2.08-2.82 2.08a4.42 4.42 0 0 1-3.85-1.95l-1.57 1.06a6.08 6.08 0 0 0 5.37 2.5c3.12 0 4.71-1.83 4.71-3.71-0.02-2.45-2.3-3.03-4.35-3.42zm12-5.28a6.12 6.12 0 0 0-6.22 6.25 6 6 0 0 0 6.29 6.16 6.11 6.11 0 0 0 5.54-3l-1.54-0.9a4.27 4.27 0 0 1-4 2.3 4.32 4.32 0 0 1-4.53-3.89h10.54v-0.82a5.89 5.89 0 0 0-6.07-6.08zm-4.41 5.3a4.43 4.43 0 0 1 4.41-3.69 4 4 0 0 1 4.22 3.69zm17.8-5.24a3.3 3.3 0 0 0-3.4 2.43v-2.23h-1.75V24h1.79v-6.53c0-2.63 1.15-3.78 3.14-3.78a2.62 2.62 0 0 1 1.46 0.38l0.75-1.72a3.88 3.88 0 0 0-1.98-0.45zM110 32.44L95.22 71.61H103l2.58-7.14h16.36l2.58 7.14h7.78l-14.81-39.17zm-1.9 25.17l5.69-15.56 5.63 15.56zm39.76-25.17H135.2v39.17H148c11.69 0 20.28-8.42 20.28-19.58s-7.98-19.59-20.42-19.59zm-0.32 32.09h-4.73V39.47h4.51c8.58 0 13.31 5.37 13.31 12.56 0 7.03-5.15 12.5-13.09 12.5zm38-32.09h-12.68v39.17h12.82c11.7 0 20.32-8.42 20.32-19.61s-8-19.56-20.48-19.56zm-0.32 32.09h-4.72V39.47h4.5c8.59 0 13.31 5.37 13.31 12.56-0.02 7.03-5.17 12.5-13.11 12.5zm25.22-9.31h19.85v-6.39h-19.87zm43.76-23.31A20.12 20.12 0 1 0 274.31 52a20 20 0 0 0-20.11-20.09zm0 32.78A12.69 12.69 0 1 1 266.7 52a12.46 12.46 0 0 1-12.5 12.69zm49.89-5.58l-17.16-26.67h-8.11v39.17h7.35V44.09l17.71 27.52h7.51V32.44h-7.3zm28.55-11c-4.89-1.12-8.8-1.71-8.8-4.88 0-2.57 1.82-4.67 6.06-4.67a10.11 10.11 0 0 1 9.17 4.89l6.17-4.83c-4-4.4-8.31-6.81-15.23-6.81-8.16 0-13.9 5.15-13.9 11.58 0 7.94 6.55 9.82 12.39 11.05 5.42 1.24 9.18 2 9.18 5.64 0 2.84-2.2 4.88-6.44 4.88-4.67 0-8.15-2.09-10.73-6.17l-6.6 5.26c3.7 4.72 8.85 8 17.28 8 8.74 0 14.38-5.57 14.38-12.28 0-8.39-6.93-10.32-12.93-11.61z" fill="#666"/>
</svg>